<svg xmlns="http://www.w3.org/2000/svg" viewBox="0 0 120 120">
  <defs>
    <!-- Modern gradient for cap -->
    <linearGradient id="modernCap" x1="0%" y1="0%" x2="0%" y2="100%">
      <stop offset="0%" style="stop-color:#ef4444;stop-opacity:1" />
      <stop offset="100%" style="stop-color:#dc2626;stop-opacity:1" />
    </linearGradient>

    <!-- Gradient for stem -->
    <linearGradient id="modernStem" x1="0%" y1="0%" x2="100%" y2="0%">
      <stop offset="0%" style="stop-color:#fef9f3;stop-opacity:1" />
      <stop offset="50%" style="stop-color:#ffffff;stop-opacity:1" />
      <stop offset="100%" style="stop-color:#fef9f3;stop-opacity:1" />
    </linearGradient>

    <!-- Shadow -->
    <radialGradient id="shadow">
      <stop offset="0%" style="stop-color:#000000;stop-opacity:0.3" />
      <stop offset="100%" style="stop-color:#000000;stop-opacity:0" />
    </radialGradient>
  </defs>

  <!-- Shadow -->
  <ellipse cx="60" cy="108" rx="28" ry="4" fill="url(#shadow)"/>

  <!-- Mushroom stem -->
  <path d="M 48 55 C 46 55 45 60 45 65 L 45 95 C 45 100 48 103 52 104 L 68 104 C 72 103 75 100 75 95 L 75 65 C 75 60 74 55 72 55 Z"
        fill="url(#modernStem)" stroke="#e5e7eb" stroke-width="1.5"/>

  <!-- Stem shading -->
  <path d="M 72 55 L 72 95 C 72 99 70 102 68 103 L 68 104 C 72 103 75 100 75 95 L 75 65 C 75 60 74 55 72 55 Z"
        fill="#000000" opacity="0.06"/>

  <!-- Mushroom cap -->
  <path d="M 60 20 C 35 20 15 35 15 52 C 15 58 18 62 25 62 L 95 62 C 102 62 105 58 105 52 C 105 35 85 20 60 20 Z"
        fill="url(#modernCap)"/>

  <!-- Cap highlight -->
  <path d="M 60 20 C 45 20 32 27 25 38 C 30 30 44 24 60 24 C 76 24 90 30 95 38 C 88 27 75 20 60 20 Z"
        fill="#ffffff" opacity="0.3"/>

  <!-- White spots -->
  <circle cx="40" cy="42" r="5" fill="#ffffff" opacity="0.95"/>
  <circle cx="58" cy="35" r="6.5" fill="#ffffff" opacity="0.95"/>
  <circle cx="75" cy="40" r="4.5" fill="#ffffff" opacity="0.95"/>
  <circle cx="50" cy="52" r="4" fill="#ffffff" opacity="0.95"/>
  <circle cx="82" cy="52" r="5.5" fill="#ffffff" opacity="0.95"/>
  <circle cx="32" cy="52" r="3.5" fill="#ffffff" opacity="0.95"/>
  <circle cx="68" cy="50" r="3.8" fill="#ffffff" opacity="0.95"/>

  <!-- Gills under cap -->
  <path d="M 25 62 C 25 62 30 67 38 67 C 46 67 50 62 50 62 M 50 62 C 50 62 54 67 62 67 C 70 67 74 62 74 62 M 74 62 C 74 62 78 67 86 67 C 94 67 95 62 95 62"
        stroke="#b91c1c" stroke-width="1.5" fill="none" opacity="0.5"/>
</svg>
